# xmcd CD database file
#
# Track frame offsets:
#	150
#	13152
#	25124
#	37290
#	47836
#	59646
#	70759
#	81862
#	93609
#	105504
#	117311
#	130935
#	143246
#	154515
#	168397
#	179864
#	193700
#	206484
#	220866
#	234058
#	245721
#	260134
#	272850
#	285749
#
# Disc length: 3966 seconds
#
# Revision: 0
# Processed by: cddbd v1.5PL3 Copyright (c) Steve Scherf et al.
# Submitted via: CDex 1.50
#
DISCID=710f7c18
DTITLE=Various Artist - New Orleans Rhythm Kings 1922-1923
DYEAR=1900
DGENRE=Jazz
TTITLE0=Eccentric
TTITLE1=Farewell Blues
TTITLE2=Discontented Blues
TTITLE3=Bugle Call Blues
TTITLE4=Panama
TTITLE5=Tiger Rag
TTITLE6=Livery Stable Blues
TTITLE7=Oriental
TTITLE8=Sweet Lovin' Man
TTITLE9=That's A Plenty
TTITLE10=Shimmeshawabble
TTITLE11=Weary Blues
TTITLE12=Da Da Strain
TTITLE13=Wolverine Blues
TTITLE14=Maple Leaf Rag
TTITLE15=Tin Roof Blues
TTITLE16=Sobbin' Blues
TTITLE17=Marguerite
TTITLE18=Angry
TTITLE19=Clarinet Marmalade
TTITLE20=Mr. Jelly Lord
TTITLE21=London Blues
TTITLE22=Milenberg Joys
TTITLE23=Mad
EXTD=
EXTT0=
EXTT1=
EXTT2=
EXTT3=
EXTT4=
EXTT5=
EXTT6=
EXTT7=
EXTT8=
EXTT9=
EXTT10=
EXTT11=
EXTT12=
EXTT13=
EXTT14=
EXTT15=
EXTT16=
EXTT17=
EXTT18=
EXTT19=
EXTT20=
EXTT21=
EXTT22=
EXTT23=
PLAYORDER=
